<?xml version="1.0" standalone="no"?>
<!DOCTYPE svg PUBLIC "-//W3C//DTD SVG 20010904//EN"
 "http://www.w3.org/TR/2001/REC-SVG-20010904/DTD/svg10.dtd">
<svg version="1.0" xmlns="http://www.w3.org/2000/svg"
 width="24.000000pt" height="24.000000pt" viewBox="0 0 24.000000 24.000000"
 preserveAspectRatio="xMidYMid meet">

<g transform="translate(0.000000,24.000000) scale(0.100000,-0.100000)"
fill="#000000" stroke="none">
<path d="M4 227 c-2 -7 -3 -60 -2 -118 l3 -104 115 0 115 0 0 115 0 115 -113
3 c-87 2 -114 0 -118 -11z m184 -53 c32 -37 29 -79 -10 -117 l-33 -32 -3 24
c-2 15 3 30 12 37 9 6 16 26 16 45 l0 34 -50 0 -50 0 0 -36 c0 -22 6 -39 14
-42 14 -6 20 -57 6 -57 -21 0 -60 55 -60 84 0 86 101 125 158 60z"/>
</g>
</svg>
