<svg version="1.0" xmlns="http://www.w3.org/2000/svg"
 width="640.000000pt" height="510.000000pt" viewBox="0 0 640.000000 510.000000"
 preserveAspectRatio="xMidYMid meet">
<g transform="translate(0.000000,510.000000) scale(0.100000,-0.100000)"
fill="#673AB7" stroke="none">
<path d="M1170 5084 c-172 -46 -315 -166 -400 -334 -60 -118 -62 -136 -70
-525 -5 -234 -14 -402 -24 -480 -83 -613 -286 -951 -610 -1015 l-66 -14 0
-166 0 -166 66 -14 c324 -64 527 -402 610 -1015 10 -78 19 -246 24 -480 8
-389 10 -407 70 -525 85 -169 232 -290 405 -335 52 -13 293 -15 2025 -15 1742
0 1973 2 2025 15 182 48 325 169 411 350 55 114 64 178 64 461 0 280 11 449
40 633 88 542 289 851 594 911 l66 14 0 166 0 166 -66 14 c-259 51 -447 286
-549 689 -60 239 -85 484 -85 855 0 283 -9 347 -64 461 -86 181 -229 302 -411
350 -52 13 -282 15 -2030 14 -1704 0 -1977 -2 -2025 -15z m2380 -1190 c345
-65 557 -267 600 -574 41 -287 -134 -571 -409 -663 l-73 -25 58 -11 c218 -43
398 -169 487 -340 64 -123 72 -159 71 -331 0 -140 -3 -163 -27 -235 -76 -230
-247 -388 -507 -470 -165 -51 -222 -55 -902 -55 l-628 0 0 1360 0 1360 624 0
c523 0 637 -3 706 -16z"/>
<path d="M2668 3554 c-5 -4 -8 -184 -8 -401 l0 -393 274 0 c287 0 386 8 492
41 126 39 235 138 266 242 7 23 13 85 13 137 -1 81 -4 103 -26 150 -35 76 -77
121 -147 158 -107 57 -153 63 -522 69 -184 3 -338 2 -342 -3z"/>
<path d="M2660 1985 l0 -436 393 3 c423 4 442 6 562 63 161 77 246 250 217
442 -22 139 -93 235 -217 294 -128 60 -145 62 -567 67 l-388 3 0 -436z"/>
</g>
</svg>
