<svg xmlns="http://www.w3.org/2000/svg" viewBox="0 0 24 24"><path fill="#878EB7" d="M12 18.5c6.626 0 12-2.908 12-6.5s-5.374-6.5-12-6.5S0 8.408 0 12s5.374 6.5 12 6.5z"/><path fill="#23282C" d="m5.029 15.641.326-1.73c1.541 0 2.497.117 3.382-.737.979-.927 1.234-2.576.536-3.402-.364-.433-.948-.646-1.744-.646h-2.65l-1.226 6.515h1.376zm1.039-5.487c1.424 0 2.392-.158 2.115 1.325v-.001c-.296 1.564-1.343 1.402-2.629 1.402l.514-2.726zm4.691 3.75.704-3.731c1.114 0 1.575-.046 1.778.179.21.232.101.486-.476 3.553h1.388c.6-3.172.866-3.843.31-4.369-.528-.502-1.623-.413-2.805-.413l.326-1.73h-1.368L9.39 13.904h1.369zm5.028 1.737.326-1.73c1.62 0 2.516.097 3.383-.737.979-.927 1.234-2.576.536-3.402-.364-.433-.949-.646-1.744-.646h-2.651l-1.23 6.515h1.38zm1.035-5.487c1.432 0 2.392-.158 2.115 1.325v-.001c-.3 1.588-1.376 1.402-2.629 1.402l.514-2.726z"/><path fill="#767C9F" d="M8.032 12H5.72l-.166.881c.22 0 .433.005.637.005.832-.001 1.505-.08 1.841-.886zM24 12h-3.752a3.01 3.01 0 0 1-.752 1.174c-.703.677-1.425.741-2.538.741-.259 0-.539-.004-.844-.004l-.326 1.73h-1.38L15.094 12h-.571c-.099.51-.226 1.133-.372 1.905h-1.388c.154-.817.275-1.435.365-1.905h-2.011l-.359 1.904H9.39L9.748 12H9.49a3.01 3.01 0 0 1-.752 1.174c-.695.671-1.434.742-2.466.742-.282 0-.585-.005-.916-.005l-.326 1.73H3.652L4.338 12H0c0 3.592 5.374 6.5 12 6.5s12-2.908 12-6.5z"/><path fill="#1E2326" d="M9.49 12H8.032c-.337.806-1.009.885-1.842.885-.204 0-.417-.005-.637-.005L5.72 12H4.338l-.685 3.641H5.03l.326-1.73c.33 0 .634.005.916.005 1.032 0 1.771-.072 2.466-.742.342-.325.596-.738.752-1.174zm1.628 0h-1.37l-.358 1.904h1.369L11.118 12zm3.406 0H13.13c-.09.471-.211 1.088-.365 1.905h1.388c.145-.772.271-1.396.371-1.905z"/><path fill="#767C9F" d="M18.788 12h-2.313l-.166.881c.238 0 .469.007.69.007.796-.001 1.456-.088 1.789-.888z"/><path fill="#1E2326" d="M20.248 12h-1.46c-.333.801-.993.887-1.789.887-.221 0-.452-.007-.69-.007l.165-.88h-1.38l-.687 3.641h1.38l.326-1.73c.306 0 .586.004.844.004 1.113 0 1.836-.064 2.538-.741.344-.325.598-.738.753-1.174z"/></svg>