<svg width="594" height="302" viewBox="0 0 594 302" fill="none" xmlns="http://www.w3.org/2000/svg">
<path d="M75.58 203C75.34 203 75.14 202.92 74.98 202.76C74.8333 202.6 74.76 202.407 74.76 202.18V189.8C74.76 189.573 74.8333 189.387 74.98 189.24C75.14 189.08 75.3333 189 75.56 189H82.58C82.8067 189 83 189.073 83.16 189.22C83.32 189.367 83.4 189.553 83.4 189.78C83.4 189.993 83.32 190.173 83.16 190.32C83 190.467 82.8067 190.54 82.58 190.54H76.28L76.4 190.38V195.28L76.3 195.06H81.68C81.9067 195.06 82.1 195.14 82.26 195.3C82.42 195.447 82.5 195.633 82.5 195.86C82.5 196.06 82.42 196.24 82.26 196.4C82.1 196.547 81.9067 196.62 81.68 196.62H76.26L76.4 196.44V202.18C76.4 202.407 76.32 202.6 76.16 202.76C76 202.92 75.8067 203 75.58 203ZM86.4128 203C86.1861 203 85.9928 202.92 85.8328 202.76C85.6861 202.6 85.6128 202.407 85.6128 202.18V193.46C85.6128 193.233 85.6861 193.047 85.8328 192.9C85.9928 192.74 86.1861 192.66 86.4128 192.66C86.6528 192.66 86.8461 192.74 86.9928 192.9C87.1395 193.047 87.2128 193.233 87.2128 193.46V196.1L86.9728 195.68C87.0528 195.267 87.1928 194.867 87.3928 194.48C87.6061 194.08 87.8728 193.727 88.1928 193.42C88.5128 193.1 88.8795 192.853 89.2928 192.68C89.7061 192.493 90.1595 192.4 90.6528 192.4C90.9461 192.4 91.2128 192.473 91.4528 192.62C91.7061 192.753 91.8328 192.947 91.8328 193.2C91.8328 193.48 91.7595 193.687 91.6128 193.82C91.4661 193.953 91.2995 194.02 91.1128 194.02C90.9395 194.02 90.7728 193.987 90.6128 193.92C90.4528 193.84 90.2528 193.8 90.0128 193.8C89.6795 193.8 89.3461 193.893 89.0128 194.08C88.6928 194.253 88.3928 194.507 88.1128 194.84C87.8461 195.173 87.6261 195.553 87.4528 195.98C87.2928 196.393 87.2128 196.84 87.2128 197.32V202.18C87.2128 202.407 87.1328 202.6 86.9728 202.76C86.8261 202.92 86.6395 203 86.4128 203ZM103.011 197.8C103.011 198.84 102.778 199.767 102.311 200.58C101.858 201.393 101.238 202.033 100.451 202.5C99.6776 202.967 98.8043 203.2 97.8309 203.2C96.8576 203.2 95.9776 202.967 95.1909 202.5C94.4043 202.033 93.7776 201.393 93.3109 200.58C92.8576 199.767 92.6309 198.84 92.6309 197.8C92.6309 196.76 92.8576 195.833 93.3109 195.02C93.7776 194.207 94.4043 193.567 95.1909 193.1C95.9776 192.633 96.8576 192.4 97.8309 192.4C98.8043 192.4 99.6776 192.633 100.451 193.1C101.238 193.567 101.858 194.207 102.311 195.02C102.778 195.833 103.011 196.76 103.011 197.8ZM101.411 197.8C101.411 197.027 101.251 196.347 100.931 195.76C100.624 195.173 100.198 194.713 99.6509 194.38C99.1176 194.047 98.5109 193.88 97.8309 193.88C97.1509 193.88 96.5376 194.047 95.9909 194.38C95.4576 194.713 95.0309 195.173 94.7109 195.76C94.3909 196.347 94.2309 197.027 94.2309 197.8C94.2309 198.56 94.3909 199.233 94.7109 199.82C95.0309 200.407 95.4576 200.873 95.9909 201.22C96.5376 201.553 97.1509 201.72 97.8309 201.72C98.5109 201.72 99.1176 201.553 99.6509 201.22C100.198 200.873 100.624 200.407 100.931 199.82C101.251 199.233 101.411 198.56 101.411 197.8ZM110.558 192.4C111.464 192.4 112.178 192.587 112.698 192.96C113.218 193.333 113.584 193.833 113.798 194.46C114.024 195.087 114.138 195.787 114.138 196.56V202.18C114.138 202.407 114.058 202.6 113.898 202.76C113.751 202.92 113.564 203 113.338 203C113.111 203 112.918 202.92 112.758 202.76C112.611 202.6 112.538 202.407 112.538 202.18V196.6C112.538 196.093 112.458 195.64 112.298 195.24C112.151 194.827 111.898 194.5 111.538 194.26C111.191 194.007 110.711 193.88 110.098 193.88C109.538 193.88 109.024 194.007 108.558 194.26C108.091 194.5 107.718 194.827 107.438 195.24C107.158 195.64 107.018 196.093 107.018 196.6V202.18C107.018 202.407 106.938 202.6 106.778 202.76C106.631 202.92 106.444 203 106.218 203C105.991 203 105.798 202.92 105.638 202.76C105.491 202.6 105.418 202.407 105.418 202.18V193.46C105.418 193.233 105.491 193.047 105.638 192.9C105.798 192.74 105.991 192.66 106.218 192.66C106.458 192.66 106.651 192.74 106.798 192.9C106.944 193.047 107.018 193.233 107.018 193.46V194.88L106.618 195.32C106.684 194.973 106.838 194.627 107.078 194.28C107.318 193.92 107.618 193.6 107.978 193.32C108.338 193.04 108.738 192.82 109.178 192.66C109.618 192.487 110.078 192.4 110.558 192.4ZM116.697 192.72H121.397C121.611 192.72 121.784 192.793 121.917 192.94C122.064 193.087 122.137 193.26 122.137 193.46C122.137 193.673 122.064 193.853 121.917 194C121.784 194.133 121.611 194.2 121.397 194.2H116.697C116.497 194.2 116.324 194.127 116.177 193.98C116.031 193.833 115.957 193.653 115.957 193.44C115.957 193.24 116.031 193.073 116.177 192.94C116.324 192.793 116.497 192.72 116.697 192.72ZM118.797 190C119.024 190 119.211 190.08 119.357 190.24C119.504 190.387 119.577 190.573 119.577 190.8V200.46C119.577 200.78 119.624 201.02 119.717 201.18C119.811 201.34 119.931 201.453 120.077 201.52C120.237 201.573 120.391 201.6 120.537 201.6C120.671 201.6 120.784 201.58 120.877 201.54C120.984 201.487 121.104 201.46 121.237 201.46C121.371 201.46 121.491 201.527 121.597 201.66C121.717 201.78 121.777 201.94 121.777 202.14C121.777 202.38 121.637 202.587 121.357 202.76C121.077 202.92 120.764 203 120.417 203C120.231 203 119.997 202.987 119.717 202.96C119.451 202.933 119.184 202.847 118.917 202.7C118.651 202.553 118.424 202.313 118.237 201.98C118.064 201.633 117.977 201.153 117.977 200.54V190.8C117.977 190.573 118.057 190.387 118.217 190.24C118.377 190.08 118.571 190 118.797 190ZM129.045 203.2C127.978 203.2 127.045 202.973 126.245 202.52C125.445 202.067 124.818 201.447 124.365 200.66C123.925 199.86 123.705 198.94 123.705 197.9C123.705 196.74 123.932 195.753 124.385 194.94C124.852 194.113 125.452 193.487 126.185 193.06C126.932 192.62 127.718 192.4 128.545 192.4C129.158 192.4 129.752 192.513 130.325 192.74C130.898 192.967 131.405 193.3 131.845 193.74C132.285 194.167 132.638 194.687 132.905 195.3C133.172 195.9 133.312 196.573 133.325 197.32C133.325 197.533 133.245 197.713 133.085 197.86C132.925 198.007 132.738 198.08 132.525 198.08H124.625L124.265 196.7H131.965L131.645 196.98V196.54C131.592 195.993 131.405 195.527 131.085 195.14C130.778 194.74 130.398 194.433 129.945 194.22C129.505 194.007 129.038 193.9 128.545 193.9C128.145 193.9 127.745 193.973 127.345 194.12C126.958 194.253 126.605 194.48 126.285 194.8C125.978 195.107 125.725 195.507 125.525 196C125.338 196.493 125.245 197.087 125.245 197.78C125.245 198.553 125.398 199.233 125.705 199.82C126.025 200.407 126.465 200.873 127.025 201.22C127.585 201.553 128.238 201.72 128.985 201.72C129.452 201.72 129.858 201.66 130.205 201.54C130.552 201.42 130.852 201.273 131.105 201.1C131.358 200.913 131.572 200.727 131.745 200.54C131.918 200.42 132.085 200.36 132.245 200.36C132.445 200.36 132.605 200.427 132.725 200.56C132.858 200.693 132.925 200.853 132.925 201.04C132.925 201.267 132.818 201.467 132.605 201.64C132.232 202.053 131.725 202.42 131.085 202.74C130.445 203.047 129.765 203.2 129.045 203.2ZM140.87 192.4C141.777 192.4 142.49 192.587 143.01 192.96C143.53 193.333 143.897 193.833 144.11 194.46C144.337 195.087 144.45 195.787 144.45 196.56V202.18C144.45 202.407 144.37 202.6 144.21 202.76C144.063 202.92 143.877 203 143.65 203C143.423 203 143.23 202.92 143.07 202.76C142.923 202.6 142.85 202.407 142.85 202.18V196.6C142.85 196.093 142.77 195.64 142.61 195.24C142.463 194.827 142.21 194.5 141.85 194.26C141.503 194.007 141.023 193.88 140.41 193.88C139.85 193.88 139.337 194.007 138.87 194.26C138.403 194.5 138.03 194.827 137.75 195.24C137.47 195.64 137.33 196.093 137.33 196.6V202.18C137.33 202.407 137.25 202.6 137.09 202.76C136.943 202.92 136.757 203 136.53 203C136.303 203 136.11 202.92 135.95 202.76C135.803 202.6 135.73 202.407 135.73 202.18V193.46C135.73 193.233 135.803 193.047 135.95 192.9C136.11 192.74 136.303 192.66 136.53 192.66C136.77 192.66 136.963 192.74 137.11 192.9C137.257 193.047 137.33 193.233 137.33 193.46V194.88L136.93 195.32C136.997 194.973 137.15 194.627 137.39 194.28C137.63 193.92 137.93 193.6 138.29 193.32C138.65 193.04 139.05 192.82 139.49 192.66C139.93 192.487 140.39 192.4 140.87 192.4ZM155.93 188.2C156.156 188.2 156.343 188.28 156.49 188.44C156.65 188.587 156.73 188.773 156.73 189V202.18C156.73 202.407 156.65 202.6 156.49 202.76C156.343 202.92 156.156 203 155.93 203C155.69 203 155.496 202.92 155.35 202.76C155.203 202.6 155.13 202.407 155.13 202.18V200.28L155.51 200.14C155.51 200.46 155.41 200.8 155.21 201.16C155.01 201.507 154.736 201.833 154.39 202.14C154.043 202.447 153.63 202.7 153.15 202.9C152.683 203.1 152.176 203.2 151.63 203.2C150.736 203.2 149.923 202.967 149.19 202.5C148.47 202.033 147.896 201.393 147.47 200.58C147.056 199.767 146.85 198.84 146.85 197.8C146.85 196.747 147.056 195.813 147.47 195C147.896 194.187 148.47 193.553 149.19 193.1C149.91 192.633 150.71 192.4 151.59 192.4C152.15 192.4 152.676 192.493 153.17 192.68C153.663 192.867 154.09 193.12 154.45 193.44C154.823 193.76 155.116 194.113 155.33 194.5C155.543 194.887 155.65 195.273 155.65 195.66L155.13 195.54V189C155.13 188.773 155.203 188.587 155.35 188.44C155.496 188.28 155.69 188.2 155.93 188.2ZM151.81 201.72C152.476 201.72 153.063 201.553 153.57 201.22C154.09 200.873 154.49 200.407 154.77 199.82C155.063 199.22 155.21 198.547 155.21 197.8C155.21 197.04 155.063 196.367 154.77 195.78C154.49 195.193 154.09 194.733 153.57 194.4C153.063 194.053 152.476 193.88 151.81 193.88C151.156 193.88 150.57 194.053 150.05 194.4C149.543 194.733 149.143 195.193 148.85 195.78C148.556 196.367 148.41 197.04 148.41 197.8C148.41 198.533 148.556 199.2 148.85 199.8C149.143 200.387 149.543 200.853 150.05 201.2C150.57 201.547 151.156 201.72 151.81 201.72ZM171.283 189C172.256 189 173.109 189.187 173.843 189.56C174.589 189.92 175.209 190.427 175.703 191.08C176.196 191.733 176.563 192.487 176.803 193.34C177.056 194.18 177.183 195.067 177.183 196C177.183 197.28 176.963 198.453 176.523 199.52C176.083 200.573 175.429 201.42 174.563 202.06C173.696 202.687 172.603 203 171.283 203H166.283C166.056 203 165.863 202.92 165.703 202.76C165.556 202.6 165.483 202.407 165.483 202.18V189.8C165.483 189.573 165.556 189.387 165.703 189.24C165.863 189.08 166.056 189 166.283 189H171.283ZM171.083 201.44C172.109 201.44 172.943 201.193 173.583 200.7C174.236 200.207 174.709 199.547 175.003 198.72C175.309 197.893 175.463 196.987 175.463 196C175.463 195.28 175.376 194.593 175.203 193.94C175.043 193.273 174.783 192.687 174.423 192.18C174.076 191.673 173.623 191.273 173.063 190.98C172.516 190.687 171.856 190.54 171.083 190.54H166.983L167.143 190.38V201.64L167.023 201.44H171.083ZM184.494 203.2C183.428 203.2 182.494 202.973 181.694 202.52C180.894 202.067 180.268 201.447 179.814 200.66C179.374 199.86 179.154 198.94 179.154 197.9C179.154 196.74 179.381 195.753 179.834 194.94C180.301 194.113 180.901 193.487 181.634 193.06C182.381 192.62 183.168 192.4 183.994 192.4C184.608 192.4 185.201 192.513 185.774 192.74C186.348 192.967 186.854 193.3 187.294 193.74C187.734 194.167 188.088 194.687 188.354 195.3C188.621 195.9 188.761 196.573 188.774 197.32C188.774 197.533 188.694 197.713 188.534 197.86C188.374 198.007 188.188 198.08 187.974 198.08H180.074L179.714 196.7H187.414L187.094 196.98V196.54C187.041 195.993 186.854 195.527 186.534 195.14C186.228 194.74 185.848 194.433 185.394 194.22C184.954 194.007 184.488 193.9 183.994 193.9C183.594 193.9 183.194 193.973 182.794 194.12C182.408 194.253 182.054 194.48 181.734 194.8C181.428 195.107 181.174 195.507 180.974 196C180.788 196.493 180.694 197.087 180.694 197.78C180.694 198.553 180.848 199.233 181.154 199.82C181.474 200.407 181.914 200.873 182.474 201.22C183.034 201.553 183.688 201.72 184.434 201.72C184.901 201.72 185.308 201.66 185.654 201.54C186.001 201.42 186.301 201.273 186.554 201.1C186.808 200.913 187.021 200.727 187.194 200.54C187.368 200.42 187.534 200.36 187.694 200.36C187.894 200.36 188.054 200.427 188.174 200.56C188.308 200.693 188.374 200.853 188.374 201.04C188.374 201.267 188.268 201.467 188.054 201.64C187.681 202.053 187.174 202.42 186.534 202.74C185.894 203.047 185.214 203.2 184.494 203.2ZM191.082 192.48C191.242 192.48 191.395 192.527 191.542 192.62C191.688 192.7 191.795 192.82 191.862 192.98L195.182 200.78L194.862 200.94L198.242 193C198.388 192.64 198.635 192.467 198.982 192.48C199.182 192.48 199.355 192.547 199.502 192.68C199.648 192.813 199.722 192.98 199.722 193.18C199.722 193.26 199.708 193.34 199.682 193.42C199.668 193.487 199.648 193.547 199.622 193.6L195.762 202.48C195.615 202.813 195.382 202.987 195.062 203C194.888 203.013 194.722 202.98 194.562 202.9C194.415 202.807 194.308 202.667 194.242 202.48L190.382 193.62C190.355 193.567 190.328 193.507 190.302 193.44C190.288 193.373 190.282 193.293 190.282 193.2C190.282 193.027 190.348 192.867 190.482 192.72C190.628 192.56 190.828 192.48 191.082 192.48ZM206.565 203.2C205.498 203.2 204.565 202.973 203.765 202.52C202.965 202.067 202.338 201.447 201.885 200.66C201.445 199.86 201.225 198.94 201.225 197.9C201.225 196.74 201.451 195.753 201.905 194.94C202.371 194.113 202.971 193.487 203.705 193.06C204.451 192.62 205.238 192.4 206.065 192.4C206.678 192.4 207.271 192.513 207.845 192.74C208.418 192.967 208.925 193.3 209.365 193.74C209.805 194.167 210.158 194.687 210.425 195.3C210.691 195.9 210.831 196.573 210.845 197.32C210.845 197.533 210.765 197.713 210.605 197.86C210.445 198.007 210.258 198.08 210.045 198.08H202.145L201.785 196.7H209.485L209.165 196.98V196.54C209.111 195.993 208.925 195.527 208.605 195.14C208.298 194.74 207.918 194.433 207.465 194.22C207.025 194.007 206.558 193.9 206.065 193.9C205.665 193.9 205.265 193.973 204.865 194.12C204.478 194.253 204.125 194.48 203.805 194.8C203.498 195.107 203.245 195.507 203.045 196C202.858 196.493 202.765 197.087 202.765 197.78C202.765 198.553 202.918 199.233 203.225 199.82C203.545 200.407 203.985 200.873 204.545 201.22C205.105 201.553 205.758 201.72 206.505 201.72C206.971 201.72 207.378 201.66 207.725 201.54C208.071 201.42 208.371 201.273 208.625 201.1C208.878 200.913 209.091 200.727 209.265 200.54C209.438 200.42 209.605 200.36 209.765 200.36C209.965 200.36 210.125 200.427 210.245 200.56C210.378 200.693 210.445 200.853 210.445 201.04C210.445 201.267 210.338 201.467 210.125 201.64C209.751 202.053 209.245 202.42 208.605 202.74C207.965 203.047 207.285 203.2 206.565 203.2ZM215.01 202.18C215.01 202.407 214.93 202.6 214.77 202.76C214.61 202.92 214.416 203 214.19 203C213.963 203 213.776 202.92 213.63 202.76C213.483 202.6 213.41 202.407 213.41 202.18V189C213.41 188.773 213.483 188.587 213.63 188.44C213.79 188.28 213.983 188.2 214.21 188.2C214.45 188.2 214.643 188.28 214.79 188.44C214.936 188.587 215.01 188.773 215.01 189V202.18ZM227.737 197.8C227.737 198.84 227.504 199.767 227.038 200.58C226.584 201.393 225.964 202.033 225.178 202.5C224.404 202.967 223.531 203.2 222.558 203.2C221.584 203.2 220.704 202.967 219.918 202.5C219.131 202.033 218.504 201.393 218.038 200.58C217.584 199.767 217.358 198.84 217.358 197.8C217.358 196.76 217.584 195.833 218.038 195.02C218.504 194.207 219.131 193.567 219.918 193.1C220.704 192.633 221.584 192.4 222.558 192.4C223.531 192.4 224.404 192.633 225.178 193.1C225.964 193.567 226.584 194.207 227.038 195.02C227.504 195.833 227.737 196.76 227.737 197.8ZM226.138 197.8C226.138 197.027 225.978 196.347 225.658 195.76C225.351 195.173 224.924 194.713 224.378 194.38C223.844 194.047 223.238 193.88 222.558 193.88C221.878 193.88 221.264 194.047 220.718 194.38C220.184 194.713 219.758 195.173 219.438 195.76C219.118 196.347 218.958 197.027 218.958 197.8C218.958 198.56 219.118 199.233 219.438 199.82C219.758 200.407 220.184 200.873 220.718 201.22C221.264 201.553 221.878 201.72 222.558 201.72C223.238 201.72 223.844 201.553 224.378 201.22C224.924 200.873 225.351 200.407 225.658 199.82C225.978 199.233 226.138 198.56 226.138 197.8ZM235.244 192.5C236.151 192.5 236.964 192.727 237.684 193.18C238.404 193.633 238.971 194.26 239.384 195.06C239.811 195.86 240.024 196.78 240.024 197.82C240.024 198.847 239.811 199.767 239.384 200.58C238.971 201.38 238.404 202.013 237.684 202.48C236.977 202.933 236.177 203.16 235.284 203.16C234.791 203.16 234.324 203.087 233.884 202.94C233.457 202.78 233.064 202.58 232.704 202.34C232.357 202.087 232.064 201.807 231.824 201.5C231.584 201.18 231.411 200.867 231.304 200.56L231.744 200.28V206.18C231.744 206.407 231.671 206.6 231.524 206.76C231.377 206.92 231.184 207 230.944 207C230.717 207 230.524 206.92 230.364 206.76C230.217 206.613 230.144 206.42 230.144 206.18V193.4C230.144 193.173 230.217 192.987 230.364 192.84C230.524 192.68 230.717 192.6 230.944 192.6C231.184 192.6 231.377 192.68 231.524 192.84C231.671 192.987 231.744 193.173 231.744 193.4V195.18L231.444 195.02C231.537 194.687 231.697 194.367 231.924 194.06C232.164 193.753 232.451 193.487 232.784 193.26C233.131 193.02 233.511 192.833 233.924 192.7C234.351 192.567 234.791 192.5 235.244 192.5ZM235.064 193.98C234.397 193.98 233.804 194.147 233.284 194.48C232.777 194.813 232.377 195.267 232.084 195.84C231.804 196.413 231.664 197.073 231.664 197.82C231.664 198.553 231.804 199.213 232.084 199.8C232.377 200.387 232.777 200.847 233.284 201.18C233.804 201.513 234.397 201.68 235.064 201.68C235.731 201.68 236.317 201.513 236.824 201.18C237.331 200.847 237.731 200.387 238.024 199.8C238.317 199.213 238.464 198.553 238.464 197.82C238.464 197.073 238.317 196.413 238.024 195.84C237.731 195.267 237.331 194.813 236.824 194.48C236.317 194.147 235.731 193.98 235.064 193.98ZM247.209 203.2C246.143 203.2 245.209 202.973 244.409 202.52C243.609 202.067 242.983 201.447 242.529 200.66C242.089 199.86 241.869 198.94 241.869 197.9C241.869 196.74 242.096 195.753 242.549 194.94C243.016 194.113 243.616 193.487 244.349 193.06C245.096 192.62 245.883 192.4 246.709 192.4C247.323 192.4 247.916 192.513 248.489 192.74C249.063 192.967 249.569 193.3 250.009 193.74C250.449 194.167 250.803 194.687 251.069 195.3C251.336 195.9 251.476 196.573 251.489 197.32C251.489 197.533 251.409 197.713 251.249 197.86C251.089 198.007 250.903 198.08 250.689 198.08H242.789L242.429 196.7H250.129L249.809 196.98V196.54C249.756 195.993 249.569 195.527 249.249 195.14C248.943 194.74 248.563 194.433 248.109 194.22C247.669 194.007 247.203 193.9 246.709 193.9C246.309 193.9 245.909 193.973 245.509 194.12C245.123 194.253 244.769 194.48 244.449 194.8C244.143 195.107 243.889 195.507 243.689 196C243.503 196.493 243.409 197.087 243.409 197.78C243.409 198.553 243.563 199.233 243.869 199.82C244.189 200.407 244.629 200.873 245.189 201.22C245.749 201.553 246.403 201.72 247.149 201.72C247.616 201.72 248.023 201.66 248.369 201.54C248.716 201.42 249.016 201.273 249.269 201.1C249.523 200.913 249.736 200.727 249.909 200.54C250.083 200.42 250.249 200.36 250.409 200.36C250.609 200.36 250.769 200.427 250.889 200.56C251.023 200.693 251.089 200.853 251.089 201.04C251.089 201.267 250.983 201.467 250.769 201.64C250.396 202.053 249.889 202.42 249.249 202.74C248.609 203.047 247.929 203.2 247.209 203.2ZM254.694 203C254.467 203 254.274 202.92 254.114 202.76C253.967 202.6 253.894 202.407 253.894 202.18V193.46C253.894 193.233 253.967 193.047 254.114 192.9C254.274 192.74 254.467 192.66 254.694 192.66C254.934 192.66 255.127 192.74 255.274 192.9C255.421 193.047 255.494 193.233 255.494 193.46V196.1L255.254 195.68C255.334 195.267 255.474 194.867 255.674 194.48C255.887 194.08 256.154 193.727 256.474 193.42C256.794 193.1 257.161 192.853 257.574 192.68C257.987 192.493 258.441 192.4 258.934 192.4C259.227 192.4 259.494 192.473 259.734 192.62C259.987 192.753 260.114 192.947 260.114 193.2C260.114 193.48 260.041 193.687 259.894 193.82C259.747 193.953 259.581 194.02 259.394 194.02C259.221 194.02 259.054 193.987 258.894 193.92C258.734 193.84 258.534 193.8 258.294 193.8C257.961 193.8 257.627 193.893 257.294 194.08C256.974 194.253 256.674 194.507 256.394 194.84C256.127 195.173 255.907 195.553 255.734 195.98C255.574 196.393 255.494 196.84 255.494 197.32V202.18C255.494 202.407 255.414 202.6 255.254 202.76C255.107 202.92 254.921 203 254.694 203Z" fill="white"/>
<path d="M86.955 112.5C90.165 112.5 92.97 113.16 95.37 114.48C97.8 115.77 99.69 117.6 101.04 119.97C102.42 122.34 103.11 125.1 103.11 128.25C103.11 131.4 102.42 134.16 101.04 136.53C99.69 138.87 97.8 140.7 95.37 142.02C92.97 143.34 90.165 144 86.955 144H77.325L77.28 142.65C77.28 142.65 77.595 142.65 78.225 142.65C78.885 142.65 79.695 142.65 80.655 142.65C81.645 142.65 82.62 142.65 83.58 142.65C84.54 142.65 85.335 142.65 85.965 142.65C86.625 142.65 86.955 142.65 86.955 142.65C89.535 142.65 91.77 142.05 93.66 140.85C95.58 139.65 97.065 137.97 98.115 135.81C99.195 133.65 99.735 131.13 99.735 128.25C99.735 125.37 99.195 122.85 98.115 120.69C97.065 118.53 95.58 116.85 93.66 115.65C91.74 114.45 89.505 113.85 86.955 113.85C86.955 113.85 86.61 113.85 85.92 113.85C85.26 113.85 84.42 113.85 83.4 113.85C82.41 113.85 81.405 113.85 80.385 113.85C79.395 113.85 78.555 113.85 77.865 113.85C77.175 113.85 76.83 113.85 76.83 113.85V112.5H86.955ZM78.09 112.5V144H75.165V112.5H78.09ZM75.3 140.715V144H71.7V143.55C71.7 143.55 71.79 143.55 71.97 143.55C72.18 143.55 72.285 143.55 72.285 143.55C73.065 143.55 73.725 143.28 74.265 142.74C74.835 142.17 75.135 141.495 75.165 140.715H75.3ZM75.3 115.785H75.165C75.165 115.005 74.88 114.345 74.31 113.805C73.74 113.235 73.065 112.95 72.285 112.95C72.285 112.95 72.195 112.95 72.015 112.95C71.835 112.95 71.745 112.95 71.745 112.95L71.7 112.5H75.3V115.785ZM113.51 112.5V144H110.585V112.5H113.51ZM110.72 140.715V144H107.12V143.55C107.12 143.55 107.21 143.55 107.39 143.55C107.6 143.55 107.705 143.55 107.705 143.55C108.485 143.55 109.145 143.28 109.685 142.74C110.255 142.17 110.555 141.495 110.585 140.715H110.72ZM110.72 115.785H110.585C110.555 115.005 110.255 114.345 109.685 113.805C109.145 113.235 108.485 112.95 107.705 112.95C107.705 112.95 107.6 112.95 107.39 112.95C107.21 112.95 107.12 112.95 107.12 112.95V112.5H110.72V115.785ZM113.375 140.715H113.51C113.54 141.495 113.825 142.17 114.365 142.74C114.935 143.28 115.61 143.55 116.39 143.55C116.39 143.55 116.48 143.55 116.66 143.55C116.84 143.55 116.945 143.55 116.975 143.55V144H113.375V140.715ZM113.375 115.785V112.5H116.975V112.95C116.945 112.95 116.84 112.95 116.66 112.95C116.48 112.95 116.39 112.95 116.39 112.95C115.61 112.95 114.935 113.235 114.365 113.805C113.825 114.345 113.54 115.005 113.51 115.785H113.375ZM128.715 112.5V144H125.79V112.5H128.715ZM140.865 142.605V144H128.58V142.605H140.865ZM138.93 127.8V129.15H128.58V127.8H138.93ZM140.865 112.5V113.895H128.58V112.5H140.865ZM143.61 136.71L141 144H133.53L135.15 142.605C136.74 142.605 138.03 142.365 139.02 141.885C140.04 141.375 140.865 140.67 141.495 139.77C142.125 138.87 142.68 137.85 143.16 136.71H143.61ZM138.93 129.06V132.03H138.48V131.355C138.48 130.755 138.27 130.245 137.85 129.825C137.43 129.375 136.92 129.15 136.32 129.15V129.06H138.93ZM138.93 124.92V127.89H136.32V127.8C136.92 127.77 137.43 127.545 137.85 127.125C138.27 126.675 138.48 126.15 138.48 125.55V124.92H138.93ZM140.865 113.76V117.36H140.415V116.55C140.415 115.83 140.16 115.215 139.65 114.705C139.14 114.165 138.51 113.88 137.76 113.85V113.76H140.865ZM140.865 111.69V112.995L135.375 112.5C136.035 112.5 136.725 112.455 137.445 112.365C138.195 112.275 138.885 112.17 139.515 112.05C140.145 111.93 140.595 111.81 140.865 111.69ZM125.925 140.715V144H122.325V143.55C122.325 143.55 122.415 143.55 122.595 143.55C122.805 143.55 122.91 143.55 122.91 143.55C123.69 143.55 124.35 143.28 124.89 142.74C125.46 142.17 125.76 141.495 125.79 140.715H125.925ZM125.925 115.785H125.79C125.79 115.005 125.505 114.345 124.935 113.805C124.365 113.235 123.69 112.95 122.91 112.95C122.91 112.95 122.82 112.95 122.64 112.95C122.46 112.95 122.37 112.95 122.37 112.95L122.325 112.5H125.925V115.785ZM176.623 131.4V138.825C175.933 139.725 175.003 140.625 173.833 141.525C172.663 142.425 171.223 143.175 169.513 143.775C167.833 144.345 165.853 144.63 163.573 144.63C160.393 144.6 157.588 143.91 155.158 142.56C152.728 141.18 150.823 139.275 149.443 136.845C148.093 134.385 147.418 131.52 147.418 128.25C147.418 124.98 148.093 122.115 149.443 119.655C150.823 117.195 152.728 115.29 155.158 113.94C157.588 112.56 160.393 111.87 163.573 111.87C165.223 111.87 166.708 112.005 168.028 112.275C169.348 112.545 170.533 112.92 171.583 113.4C172.663 113.85 173.638 114.36 174.508 114.93L175.408 121.275H175.003C174.553 119.535 173.803 118.08 172.753 116.91C171.733 115.71 170.443 114.795 168.883 114.165C167.323 113.535 165.553 113.22 163.573 113.22C161.053 113.22 158.833 113.85 156.913 115.11C154.993 116.37 153.493 118.125 152.413 120.375C151.333 122.625 150.793 125.25 150.793 128.25C150.793 131.25 151.333 133.875 152.413 136.125C153.493 138.375 154.993 140.13 156.913 141.39C158.833 142.62 161.053 143.25 163.573 143.28C164.893 143.28 166.153 143.13 167.353 142.83C168.583 142.5 169.738 142.05 170.818 141.48C171.898 140.88 172.858 140.175 173.698 139.365L173.743 131.4C173.743 130.05 172.978 129.375 171.448 129.375H170.728V128.925H179.548V129.375H178.873C177.313 129.375 176.563 130.05 176.623 131.4ZM199.926 111.87C203.136 111.87 205.956 112.56 208.386 113.94C210.816 115.29 212.706 117.195 214.056 119.655C215.436 122.115 216.126 124.98 216.126 128.25C216.126 131.52 215.436 134.385 214.056 136.845C212.706 139.305 210.816 141.225 208.386 142.605C205.956 143.955 203.136 144.63 199.926 144.63C196.746 144.63 193.941 143.955 191.511 142.605C189.081 141.225 187.176 139.305 185.796 136.845C184.446 134.385 183.771 131.52 183.771 128.25C183.771 124.98 184.446 122.115 185.796 119.655C187.176 117.195 189.081 115.29 191.511 113.94C193.941 112.56 196.746 111.87 199.926 111.87ZM199.926 143.28C202.476 143.28 204.696 142.65 206.586 141.39C208.506 140.13 209.991 138.375 211.041 136.125C212.121 133.875 212.661 131.25 212.661 128.25C212.661 125.25 212.121 122.625 211.041 120.375C209.991 118.125 208.506 116.37 206.586 115.11C204.696 113.85 202.476 113.22 199.926 113.22C197.406 113.22 195.186 113.85 193.266 115.11C191.376 116.37 189.891 118.125 188.811 120.375C187.761 122.625 187.236 125.25 187.236 128.25C187.236 131.25 187.761 133.875 188.811 136.125C189.891 138.375 191.376 140.13 193.266 141.39C195.186 142.65 197.406 143.28 199.926 143.28ZM248.376 144.63L248.826 143.46C249.366 143.46 250.071 143.565 250.941 143.775C251.841 143.985 252.876 144.27 254.046 144.63C255.216 145.02 256.506 145.485 257.916 146.025C259.356 146.565 260.886 147.165 262.506 147.825C264.126 148.485 265.836 149.205 267.636 149.985C269.316 150.705 271.131 151.23 273.081 151.56C275.061 151.92 277.056 152.04 279.066 151.92C281.076 151.8 282.981 151.395 284.781 150.705C286.611 150.045 288.216 149.07 289.596 147.78L289.776 148.005C289.566 148.575 289.056 149.265 288.246 150.075C287.466 150.915 286.416 151.71 285.096 152.46C283.776 153.24 282.216 153.84 280.416 154.26C278.646 154.71 276.651 154.845 274.431 154.665C272.241 154.485 269.856 153.84 267.276 152.73C265.896 152.13 264.426 151.425 262.866 150.615C261.306 149.805 259.701 148.995 258.051 148.185C256.401 147.375 254.751 146.64 253.101 145.98C251.481 145.35 249.906 144.9 248.376 144.63ZM248.871 111.87C252.051 111.87 254.841 112.56 257.241 113.94C259.671 115.29 261.561 117.195 262.911 119.655C264.291 122.115 264.981 124.98 264.981 128.25C264.981 131.52 264.291 134.385 262.911 136.845C261.561 139.305 259.671 141.225 257.241 142.605C254.811 143.955 252.021 144.63 248.871 144.63C245.691 144.63 242.886 143.955 240.456 142.605C238.026 141.225 236.121 139.305 234.741 136.845C233.391 134.385 232.716 131.52 232.716 128.25C232.716 124.98 233.391 122.115 234.741 119.655C236.121 117.195 238.026 115.29 240.456 113.94C242.886 112.56 245.691 111.87 248.871 111.87ZM248.871 143.28C251.421 143.28 253.641 142.65 255.531 141.39C257.451 140.13 258.936 138.375 259.986 136.125C261.066 133.875 261.606 131.25 261.606 128.25C261.606 125.25 261.066 122.625 259.986 120.375C258.936 118.125 257.451 116.37 255.531 115.11C253.641 113.85 251.421 113.22 248.871 113.22C246.321 113.22 244.086 113.85 242.166 115.11C240.246 116.37 238.746 118.125 237.666 120.375C236.616 122.625 236.091 125.25 236.091 128.25C236.091 131.25 236.631 133.875 237.711 136.125C238.791 138.375 240.291 140.13 242.211 141.39C244.131 142.65 246.351 143.28 248.871 143.28ZM275.298 112.5V132.3C275.298 134.46 275.688 136.365 276.468 138.015C277.278 139.665 278.403 140.955 279.843 141.885C281.283 142.785 282.948 143.235 284.838 143.235C286.848 143.235 288.603 142.8 290.103 141.93C291.603 141.06 292.773 139.86 293.613 138.33C294.453 136.77 294.873 134.955 294.873 132.885V112.5H296.988V132.885C296.988 135.225 296.478 137.28 295.458 139.05C294.468 140.79 293.058 142.155 291.228 143.145C289.398 144.135 287.268 144.63 284.838 144.63C282.348 144.63 280.158 144.15 278.268 143.19C276.408 142.2 274.953 140.835 273.903 139.095C272.883 137.325 272.373 135.27 272.373 132.93V112.5H275.298ZM272.508 112.5V115.2H272.373C272.373 114.54 272.133 114 271.653 113.58C271.203 113.16 270.648 112.95 269.988 112.95C269.988 112.95 269.868 112.95 269.628 112.95C269.388 112.95 269.268 112.95 269.268 112.95V112.5H272.508ZM278.403 112.5V112.95C278.403 112.95 278.283 112.95 278.043 112.95C277.803 112.95 277.683 112.95 277.683 112.95C277.023 112.95 276.453 113.16 275.973 113.58C275.523 114 275.298 114.54 275.298 115.2H275.208V112.5H278.403ZM295.008 112.5V115.2H294.873C294.873 114.54 294.633 114 294.153 113.58C293.703 113.16 293.148 112.95 292.488 112.95C292.488 112.95 292.368 112.95 292.128 112.95C291.888 112.95 291.768 112.95 291.768 112.95V112.5H295.008ZM300.093 112.5V112.95C300.093 112.95 299.973 112.95 299.733 112.95C299.493 112.95 299.373 112.95 299.373 112.95C298.713 112.95 298.143 113.16 297.663 113.58C297.213 114 296.988 114.54 296.988 115.2H296.898V112.5H300.093ZM310.868 112.5V144H307.943V112.5H310.868ZM308.078 140.715V144H304.478V143.55C304.478 143.55 304.568 143.55 304.748 143.55C304.958 143.55 305.063 143.55 305.063 143.55C305.843 143.55 306.503 143.28 307.043 142.74C307.613 142.17 307.913 141.495 307.943 140.715H308.078ZM308.078 115.785H307.943C307.913 115.005 307.613 114.345 307.043 113.805C306.503 113.235 305.843 112.95 305.063 112.95C305.063 112.95 304.958 112.95 304.748 112.95C304.568 112.95 304.478 112.95 304.478 112.95V112.5H308.078V115.785ZM310.733 140.715H310.868C310.898 141.495 311.183 142.17 311.723 142.74C312.293 143.28 312.968 143.55 313.748 143.55C313.748 143.55 313.838 143.55 314.018 143.55C314.198 143.55 314.303 143.55 314.333 143.55V144H310.733V140.715ZM310.733 115.785V112.5H314.333V112.95C314.303 112.95 314.198 112.95 314.018 112.95C313.838 112.95 313.748 112.95 313.748 112.95C312.968 112.95 312.293 113.235 311.723 113.805C311.183 114.345 310.898 115.005 310.868 115.785H310.733ZM322.653 111.825L348.798 139.725L349.203 144.63L323.058 116.775L322.653 111.825ZM322.743 140.805V144H319.008V143.55C319.008 143.55 319.143 143.55 319.413 143.55C319.683 143.55 319.833 143.55 319.863 143.55C320.613 143.55 321.258 143.28 321.798 142.74C322.338 142.2 322.608 141.555 322.608 140.805H322.743ZM324.678 140.805C324.678 141.555 324.948 142.2 325.488 142.74C326.028 143.28 326.673 143.55 327.423 143.55C327.453 143.55 327.603 143.55 327.873 143.55C328.143 143.55 328.278 143.55 328.278 143.55V144H324.543V140.805H324.678ZM322.653 111.825L324.633 114.345L324.678 144H322.608V117.45C322.608 115.92 322.533 114.6 322.383 113.49C322.263 112.38 322.203 111.825 322.203 111.825H322.653ZM349.203 112.5V138.87C349.203 139.83 349.233 140.76 349.293 141.66C349.353 142.53 349.413 143.25 349.473 143.82C349.563 144.36 349.608 144.63 349.608 144.63H349.203L347.178 142.245V112.5H349.203ZM352.803 112.5V112.95C352.803 112.95 352.668 112.95 352.398 112.95C352.128 112.95 351.993 112.95 351.993 112.95C351.243 112.95 350.598 113.22 350.058 113.76C349.518 114.27 349.233 114.915 349.203 115.695H349.068V112.5H352.803ZM343.533 112.5H347.268V115.695H347.178C347.148 114.915 346.863 114.27 346.323 113.76C345.813 113.22 345.168 112.95 344.388 112.95C344.388 112.95 344.253 112.95 343.983 112.95C343.713 112.95 343.563 112.95 343.533 112.95V112.5ZM370.21 112.635V144H367.285V112.635H370.21ZM381.775 112.455V113.805H355.72V112.455H381.775ZM381.775 113.67V117.315L381.325 117.27V116.505C381.325 115.755 381.055 115.125 380.515 114.615C380.005 114.105 379.39 113.835 378.67 113.805V113.67H381.775ZM381.775 111.645V112.95L376.285 112.455C376.945 112.455 377.635 112.41 378.355 112.32C379.105 112.23 379.795 112.125 380.425 112.005C381.055 111.885 381.505 111.765 381.775 111.645ZM367.42 140.715V144H363.82V143.55C363.82 143.55 363.91 143.55 364.09 143.55C364.3 143.55 364.405 143.55 364.405 143.55C365.185 143.55 365.845 143.28 366.385 142.74C366.955 142.17 367.255 141.495 367.285 140.715H367.42ZM370.075 140.715H370.21C370.24 141.495 370.525 142.17 371.065 142.74C371.635 143.28 372.31 143.55 373.09 143.55C373.09 143.55 373.18 143.55 373.36 143.55C373.57 143.55 373.675 143.55 373.675 143.55V144H370.075V140.715ZM358.825 113.67V113.805C358.075 113.835 357.445 114.105 356.935 114.615C356.425 115.125 356.17 115.755 356.17 116.505V117.27L355.72 117.315V113.67H358.825ZM355.72 111.645C356.02 111.765 356.47 111.885 357.07 112.005C357.7 112.125 358.39 112.23 359.14 112.32C359.89 112.41 360.58 112.455 361.21 112.455L355.72 112.95V111.645ZM391.728 112.5V144H388.803V112.5H391.728ZM403.878 142.605V144H391.593V142.605H403.878ZM401.943 127.8V129.15H391.593V127.8H401.943ZM403.878 112.5V113.895H391.593V112.5H403.878ZM406.623 136.71L404.013 144H396.543L398.163 142.605C399.753 142.605 401.043 142.365 402.033 141.885C403.053 141.375 403.878 140.67 404.508 139.77C405.138 138.87 405.693 137.85 406.173 136.71H406.623ZM401.943 129.06V132.03H401.493V131.355C401.493 130.755 401.283 130.245 400.863 129.825C400.443 129.375 399.933 129.15 399.333 129.15V129.06H401.943ZM401.943 124.92V127.89H399.333V127.8C399.933 127.77 400.443 127.545 400.863 127.125C401.283 126.675 401.493 126.15 401.493 125.55V124.92H401.943ZM403.878 113.76V117.36H403.428V116.55C403.428 115.83 403.173 115.215 402.663 114.705C402.153 114.165 401.523 113.88 400.773 113.85V113.76H403.878ZM403.878 111.69V112.995L398.388 112.5C399.048 112.5 399.738 112.455 400.458 112.365C401.208 112.275 401.898 112.17 402.528 112.05C403.158 111.93 403.608 111.81 403.878 111.69ZM388.938 140.715V144H385.338V143.55C385.338 143.55 385.428 143.55 385.608 143.55C385.818 143.55 385.923 143.55 385.923 143.55C386.703 143.55 387.363 143.28 387.903 142.74C388.473 142.17 388.773 141.495 388.803 140.715H388.938ZM388.938 115.785H388.803C388.803 115.005 388.518 114.345 387.948 113.805C387.378 113.235 386.703 112.95 385.923 112.95C385.923 112.95 385.833 112.95 385.653 112.95C385.473 112.95 385.383 112.95 385.383 112.95L385.338 112.5H388.938V115.785ZM416.675 112.5H423.02C424.37 112.5 425.585 112.695 426.665 113.085C427.775 113.475 428.705 114.045 429.455 114.795C430.205 115.515 430.775 116.4 431.165 117.45C431.585 118.47 431.795 119.64 431.795 120.96C431.795 122.4 431.45 123.78 430.76 125.1C430.1 126.42 429.185 127.5 428.015 128.34C426.875 129.15 425.585 129.555 424.145 129.555C424.655 129.765 425.21 130.2 425.81 130.86C426.41 131.49 426.935 132.105 427.385 132.705C427.385 132.705 427.58 133.005 427.97 133.605C428.39 134.175 428.9 134.88 429.5 135.72C430.13 136.56 430.76 137.385 431.39 138.195C432.02 139.005 432.56 139.65 433.01 140.13C433.61 140.79 434.21 141.375 434.81 141.885C435.41 142.395 436.055 142.8 436.745 143.1C437.465 143.4 438.26 143.55 439.13 143.55V144H436.655C435.275 144 434.075 143.79 433.055 143.37C432.065 142.95 431.225 142.44 430.535 141.84C429.845 141.21 429.26 140.61 428.78 140.04C428.69 139.92 428.435 139.575 428.015 139.005C427.625 138.435 427.145 137.76 426.575 136.98C426.035 136.17 425.495 135.375 424.955 134.595C424.415 133.815 423.95 133.155 423.56 132.615C423.17 132.045 422.945 131.715 422.885 131.625C422.315 130.875 421.685 130.185 420.995 129.555C420.305 128.925 419.555 128.61 418.745 128.61V128.16C418.745 128.16 418.97 128.175 419.42 128.205C419.9 128.205 420.47 128.19 421.13 128.16C421.91 128.13 422.765 128.01 423.695 127.8C424.625 127.59 425.495 127.155 426.305 126.495C427.115 125.835 427.73 124.83 428.15 123.48C428.24 123.15 428.315 122.745 428.375 122.265C428.435 121.755 428.45 121.26 428.42 120.78C428.39 118.74 427.865 117.12 426.845 115.92C425.855 114.69 424.52 114.03 422.84 113.94C422 113.88 421.13 113.865 420.23 113.895C419.36 113.895 418.625 113.895 418.025 113.895C417.425 113.895 417.125 113.895 417.125 113.895C417.125 113.865 417.08 113.745 416.99 113.535C416.93 113.295 416.855 113.07 416.765 112.86C416.705 112.62 416.675 112.5 416.675 112.5ZM417.26 112.5V144H414.335V112.5H417.26ZM414.47 140.715V144H410.87V143.55C410.87 143.55 410.96 143.55 411.14 143.55C411.35 143.55 411.455 143.55 411.455 143.55C412.235 143.55 412.895 143.28 413.435 142.74C414.005 142.17 414.305 141.495 414.335 140.715H414.47ZM414.47 115.785H414.335C414.305 115.005 414.005 114.345 413.435 113.805C412.895 113.235 412.235 112.95 411.455 112.95C411.455 112.95 411.35 112.95 411.14 112.95C410.96 112.95 410.87 112.95 410.87 112.95V112.5H414.47V115.785ZM417.125 140.715H417.26C417.26 141.495 417.545 142.17 418.115 142.74C418.685 143.28 419.36 143.55 420.14 143.55C420.14 143.55 420.23 143.55 420.41 143.55C420.59 143.55 420.68 143.55 420.68 143.55V144H417.125V140.715ZM455.908 111.87C459.118 111.87 461.938 112.56 464.368 113.94C466.798 115.29 468.688 117.195 470.038 119.655C471.418 122.115 472.108 124.98 472.108 128.25C472.108 131.52 471.418 134.385 470.038 136.845C468.688 139.305 466.798 141.225 464.368 142.605C461.938 143.955 459.118 144.63 455.908 144.63C452.728 144.63 449.923 143.955 447.493 142.605C445.063 141.225 443.158 139.305 441.778 136.845C440.428 134.385 439.753 131.52 439.753 128.25C439.753 124.98 440.428 122.115 441.778 119.655C443.158 117.195 445.063 115.29 447.493 113.94C449.923 112.56 452.728 111.87 455.908 111.87ZM455.908 143.28C458.458 143.28 460.678 142.65 462.568 141.39C464.488 140.13 465.973 138.375 467.023 136.125C468.103 133.875 468.643 131.25 468.643 128.25C468.643 125.25 468.103 122.625 467.023 120.375C465.973 118.125 464.488 116.37 462.568 115.11C460.678 113.85 458.458 113.22 455.908 113.22C453.388 113.22 451.168 113.85 449.248 115.11C447.358 116.37 445.873 118.125 444.793 120.375C443.743 122.625 443.218 125.25 443.218 128.25C443.218 131.25 443.743 133.875 444.793 136.125C445.873 138.375 447.358 140.13 449.248 141.39C451.168 142.65 453.388 143.28 455.908 143.28Z" fill="#F1F1F1"/>
<g filter="url(#filter0_d_7_10)">
<rect x="5" y="52" width="524" height="222" stroke="url(#paint0_linear_7_10)" stroke-width="2" shape-rendering="crispEdges"/>
</g>
<mask id="path-4-inside-1_7_10" fill="white">
<path d="M54 0H387V216H54V0Z"/>
</mask>
<path d="M54 0V-2H52V0H54ZM54 2H387V-2H54V2ZM56 216V0H52V216H56Z" fill="url(#paint1_linear_7_10)" mask="url(#path-4-inside-1_7_10)"/>
<defs>
<filter id="filter0_d_7_10" x="0" y="51" width="534" height="232" filterUnits="userSpaceOnUse" color-interpolation-filters="sRGB">
<feFlood flood-opacity="0" result="BackgroundImageFix"/>
<feColorMatrix in="SourceAlpha" type="matrix" values="0 0 0 0 0 0 0 0 0 0 0 0 0 0 0 0 0 0 127 0" result="hardAlpha"/>
<feOffset dy="4"/>
<feGaussianBlur stdDeviation="2"/>
<feComposite in2="hardAlpha" operator="out"/>
<feColorMatrix type="matrix" values="0 0 0 0 0 0 0 0 0 0 0 0 0 0 0 0 0 0 0.25 0"/>
<feBlend mode="normal" in2="BackgroundImageFix" result="effect1_dropShadow_7_10"/>
<feBlend mode="normal" in="SourceGraphic" in2="effect1_dropShadow_7_10" result="shape"/>
</filter>
<linearGradient id="paint0_linear_7_10" x1="267" y1="51" x2="340.5" y2="266.5" gradientUnits="userSpaceOnUse">
<stop stop-color="white"/>
<stop offset="1" stop-color="white" stop-opacity="0"/>
</linearGradient>
<linearGradient id="paint1_linear_7_10" x1="-215" y1="-75.5" x2="29" y2="244.5" gradientUnits="userSpaceOnUse">
<stop stop-color="white"/>
<stop offset="1" stop-color="white" stop-opacity="0"/>
</linearGradient>
</defs>
</svg>
