<svg width="594" height="302" fill="none" xmlns="http://www.w3.org/2000/svg"><path d="M75.58 203c-.24 0-.44-.08-.6-.24a.827.827 0 0 1-.22-.58V189.8c0-.227.073-.413.22-.56a.79.79 0 0 1 .58-.24h7.02c.227 0 .42.073.58.22.16.147.24.333.24.56 0 .213-.08.393-.24.54a.826.826 0 0 1-.58.22h-6.3l.12-.16v4.9l-.1-.22h5.38c.227 0 .42.08.58.24.16.147.24.333.24.56 0 .2-.08.38-.24.54a.826.826 0 0 1-.58.22h-5.42l.14-.18v5.74a.79.79 0 0 1-.24.58.79.79 0 0 1-.58.24Zm10.833 0a.79.79 0 0 1-.58-.24.827.827 0 0 1-.22-.58v-8.72c0-.227.073-.413.22-.56a.79.79 0 0 1 .58-.24c.24 0 .433.08.58.24.147.147.22.333.22.56v2.64l-.24-.42a4.19 4.19 0 0 1 1.22-2.26c.32-.32.686-.567 1.1-.74a3.26 3.26 0 0 1 1.36-.28c.293 0 .56.073.8.22.253.133.38.327.38.58 0 .28-.073.487-.22.62a.724.724 0 0 1-.5.2c-.174 0-.34-.033-.5-.1-.16-.08-.36-.12-.6-.12-.334 0-.667.093-1 .28-.32.173-.62.427-.9.76a4.544 4.544 0 0 0-.66 1.14c-.16.413-.24.86-.24 1.34v4.86a.79.79 0 0 1-.24.58.726.726 0 0 1-.56.24Zm16.598-5.2c0 1.04-.233 1.967-.7 2.78a5.046 5.046 0 0 1-1.86 1.92c-.773.467-1.647.7-2.62.7-.973 0-1.853-.233-2.64-.7a5.202 5.202 0 0 1-1.88-1.92c-.453-.813-.68-1.74-.68-2.78 0-1.04.227-1.967.68-2.78a5.202 5.202 0 0 1 1.88-1.92c.787-.467 1.667-.7 2.64-.7.973 0 1.847.233 2.62.7a5.046 5.046 0 0 1 1.86 1.92c.467.813.7 1.74.7 2.78Zm-1.6 0c0-.773-.16-1.453-.48-2.04a3.451 3.451 0 0 0-1.28-1.38c-.533-.333-1.14-.5-1.82-.5-.68 0-1.293.167-1.84.5-.533.333-.96.793-1.28 1.38-.32.587-.48 1.267-.48 2.04 0 .76.16 1.433.48 2.02.32.587.747 1.053 1.28 1.4.547.333 1.16.5 1.84.5.68 0 1.287-.167 1.82-.5a3.6 3.6 0 0 0 1.28-1.4c.32-.587.48-1.26.48-2.02Zm9.147-5.4c.906 0 1.62.187 2.14.56.52.373.886.873 1.1 1.5.226.627.34 1.327.34 2.1v5.62a.79.79 0 0 1-.24.58.728.728 0 0 1-.56.24.79.79 0 0 1-.58-.24.826.826 0 0 1-.22-.58v-5.58c0-.507-.08-.96-.24-1.36a1.92 1.92 0 0 0-.76-.98c-.347-.253-.827-.38-1.44-.38-.56 0-1.074.127-1.54.38-.467.24-.84.567-1.12.98-.28.4-.42.853-.42 1.36v5.58a.79.79 0 0 1-.24.58.728.728 0 0 1-.56.24.79.79 0 0 1-.58-.24.826.826 0 0 1-.22-.58v-8.72c0-.227.073-.413.22-.56a.79.79 0 0 1 .58-.24c.24 0 .433.08.58.24.146.147.22.333.22.56v1.42l-.4.44c.066-.347.22-.693.46-1.04.24-.36.54-.68.9-.96.36-.28.76-.5 1.2-.66.44-.173.9-.26 1.38-.26Zm6.139.32h4.7c.214 0 .387.073.52.22a.71.71 0 0 1 .22.52.734.734 0 0 1-.22.54.703.703 0 0 1-.52.2h-4.7a.71.71 0 0 1-.52-.22.738.738 0 0 1-.22-.54c0-.2.074-.367.22-.5a.71.71 0 0 1 .52-.22Zm2.1-2.72c.227 0 .414.08.56.24.147.147.22.333.22.56v9.66c0 .32.047.56.14.72a.81.81 0 0 0 .36.34c.16.053.314.08.46.08.134 0 .247-.02.34-.06a.8.8 0 0 1 .36-.08c.134 0 .254.067.36.2.12.12.18.28.18.48 0 .24-.14.447-.42.62-.28.16-.593.24-.94.24-.186 0-.42-.013-.7-.04a2.091 2.091 0 0 1-.8-.26c-.266-.147-.493-.387-.68-.72-.173-.347-.26-.827-.26-1.44v-9.74c0-.227.08-.413.24-.56.16-.16.354-.24.58-.24Zm10.248 13.2c-1.067 0-2-.227-2.8-.68a4.932 4.932 0 0 1-1.88-1.86c-.44-.8-.66-1.72-.66-2.76 0-1.16.227-2.147.68-2.96.467-.827 1.067-1.453 1.8-1.88a4.578 4.578 0 0 1 2.36-.66c.613 0 1.207.113 1.78.34.573.227 1.08.56 1.52 1 .44.427.793.947 1.06 1.56.267.6.407 1.273.42 2.02 0 .213-.08.393-.24.54a.802.802 0 0 1-.56.22h-7.9l-.36-1.38h7.7l-.32.28v-.44c-.053-.547-.24-1.013-.56-1.4a3.06 3.06 0 0 0-1.14-.92 3.174 3.174 0 0 0-1.4-.32c-.4 0-.8.073-1.2.22-.387.133-.74.36-1.06.68-.307.307-.56.707-.76 1.2-.187.493-.28 1.087-.28 1.78 0 .773.153 1.453.46 2.04.32.587.76 1.053 1.32 1.4.56.333 1.213.5 1.96.5.467 0 .873-.06 1.22-.18s.647-.267.9-.44c.253-.187.467-.373.64-.56.173-.12.34-.18.5-.18.2 0 .36.067.48.2.133.133.2.293.2.48 0 .227-.107.427-.32.6-.373.413-.88.78-1.52 1.1-.64.307-1.32.46-2.04.46Zm11.825-10.8c.907 0 1.62.187 2.14.56.52.373.887.873 1.1 1.5.227.627.34 1.327.34 2.1v5.62a.79.79 0 0 1-.24.58.726.726 0 0 1-.56.24.79.79 0 0 1-.58-.24.826.826 0 0 1-.22-.58v-5.58c0-.507-.08-.96-.24-1.36a1.92 1.92 0 0 0-.76-.98c-.347-.253-.827-.38-1.44-.38a3.18 3.18 0 0 0-1.54.38c-.467.24-.84.567-1.12.98-.28.4-.42.853-.42 1.36v5.58a.79.79 0 0 1-.24.58.726.726 0 0 1-.56.24.79.79 0 0 1-.58-.24.826.826 0 0 1-.22-.58v-8.72c0-.227.073-.413.22-.56a.79.79 0 0 1 .58-.24c.24 0 .433.08.58.24.147.147.22.333.22.56v1.42l-.4.44c.067-.347.22-.693.46-1.04.24-.36.54-.68.9-.96.36-.28.76-.5 1.2-.66.44-.173.9-.26 1.38-.26Zm15.06-4.2c.226 0 .413.08.56.24.16.147.24.333.24.56v13.18a.79.79 0 0 1-.24.58.728.728 0 0 1-.56.24.748.748 0 0 1-.58-.24.826.826 0 0 1-.22-.58v-1.9l.38-.14c0 .32-.1.66-.3 1.02-.2.347-.474.673-.82.98-.347.307-.76.56-1.24.76-.467.2-.974.3-1.52.3a4.446 4.446 0 0 1-2.44-.7c-.72-.467-1.294-1.107-1.72-1.92-.414-.813-.62-1.74-.62-2.78 0-1.053.206-1.987.62-2.8.426-.813 1-1.447 1.72-1.9.72-.467 1.52-.7 2.4-.7.56 0 1.086.093 1.58.28.493.187.92.44 1.28.76.373.32.666.673.88 1.06.213.387.32.773.32 1.16l-.52-.12V189c0-.227.073-.413.22-.56.146-.16.34-.24.58-.24Zm-4.12 13.52c.666 0 1.253-.167 1.76-.5.52-.347.92-.813 1.2-1.4.293-.6.44-1.273.44-2.02 0-.76-.147-1.433-.44-2.02a3.27 3.27 0 0 0-1.2-1.38c-.507-.347-1.094-.52-1.76-.52-.654 0-1.24.173-1.76.52a3.457 3.457 0 0 0-1.2 1.38c-.294.587-.44 1.26-.44 2.02 0 .733.146 1.4.44 2a3.615 3.615 0 0 0 1.2 1.4c.52.347 1.106.52 1.76.52ZM171.283 189c.973 0 1.826.187 2.56.56a5.05 5.05 0 0 1 1.86 1.52c.493.653.86 1.407 1.1 2.26.253.84.38 1.727.38 2.66 0 1.28-.22 2.453-.66 3.52-.44 1.053-1.094 1.9-1.96 2.54-.867.627-1.96.94-3.28.94h-5a.79.79 0 0 1-.58-.24.826.826 0 0 1-.22-.58V189.8c0-.227.073-.413.22-.56a.79.79 0 0 1 .58-.24h5Zm-.2 12.44c1.026 0 1.86-.247 2.5-.74.653-.493 1.126-1.153 1.42-1.98.306-.827.46-1.733.46-2.72 0-.72-.087-1.407-.26-2.06a5.031 5.031 0 0 0-.78-1.76 3.695 3.695 0 0 0-1.36-1.2c-.547-.293-1.207-.44-1.98-.44h-4.1l.16-.16v11.26l-.12-.2h4.06Zm13.411 1.76c-1.066 0-2-.227-2.8-.68a4.94 4.94 0 0 1-1.88-1.86c-.44-.8-.66-1.72-.66-2.76 0-1.16.227-2.147.68-2.96.467-.827 1.067-1.453 1.8-1.88a4.58 4.58 0 0 1 2.36-.66c.614 0 1.207.113 1.78.34.574.227 1.08.56 1.52 1 .44.427.794.947 1.06 1.56.267.6.407 1.273.42 2.02 0 .213-.08.393-.24.54a.8.8 0 0 1-.56.22h-7.9l-.36-1.38h7.7l-.32.28v-.44c-.053-.547-.24-1.013-.56-1.4a3.044 3.044 0 0 0-1.14-.92 3.17 3.17 0 0 0-1.4-.32c-.4 0-.8.073-1.2.22-.386.133-.74.36-1.06.68-.306.307-.56.707-.76 1.2-.186.493-.28 1.087-.28 1.78 0 .773.154 1.453.46 2.04.32.587.76 1.053 1.32 1.4.56.333 1.214.5 1.96.5.467 0 .874-.06 1.22-.18.347-.12.647-.267.9-.44.254-.187.467-.373.64-.56.174-.12.34-.18.5-.18.2 0 .36.067.48.2.134.133.2.293.2.48 0 .227-.106.427-.32.6-.373.413-.88.78-1.52 1.1-.64.307-1.32.46-2.04.46Zm6.588-10.72c.16 0 .313.047.46.14.146.08.253.2.32.36l3.32 7.8-.32.16 3.38-7.94c.146-.36.393-.533.74-.52.2 0 .373.067.52.2.146.133.22.3.22.5 0 .08-.014.16-.04.24a.76.76 0 0 1-.06.18l-3.86 8.88c-.147.333-.38.507-.7.52a.94.94 0 0 1-.5-.1.787.787 0 0 1-.32-.42l-3.86-8.86a1.957 1.957 0 0 1-.08-.18 1.196 1.196 0 0 1-.02-.24c0-.173.066-.333.2-.48.146-.16.346-.24.6-.24Zm15.483 10.72c-1.067 0-2-.227-2.8-.68a4.932 4.932 0 0 1-1.88-1.86c-.44-.8-.66-1.72-.66-2.76 0-1.16.226-2.147.68-2.96.466-.827 1.066-1.453 1.8-1.88a4.576 4.576 0 0 1 2.36-.66c.613 0 1.206.113 1.78.34.573.227 1.08.56 1.52 1 .44.427.793.947 1.06 1.56.266.6.406 1.273.42 2.02 0 .213-.08.393-.24.54a.802.802 0 0 1-.56.22h-7.9l-.36-1.38h7.7l-.32.28v-.44c-.054-.547-.24-1.013-.56-1.4a3.06 3.06 0 0 0-1.14-.92 3.174 3.174 0 0 0-1.4-.32c-.4 0-.8.073-1.2.22-.387.133-.74.36-1.06.68-.307.307-.56.707-.76 1.2-.187.493-.28 1.087-.28 1.78 0 .773.153 1.453.46 2.04.32.587.76 1.053 1.32 1.4.56.333 1.213.5 1.96.5.466 0 .873-.06 1.22-.18a3.81 3.81 0 0 0 .9-.44c.253-.187.466-.373.64-.56.173-.12.34-.18.5-.18.2 0 .36.067.48.2.133.133.2.293.2.48 0 .227-.107.427-.32.6-.374.413-.88.78-1.52 1.1-.64.307-1.32.46-2.04.46Zm8.445-1.02a.79.79 0 0 1-.24.58.791.791 0 0 1-.58.24.725.725 0 0 1-.56-.24.826.826 0 0 1-.22-.58V189c0-.227.073-.413.22-.56a.79.79 0 0 1 .58-.24c.24 0 .433.08.58.24.146.147.22.333.22.56v13.18Zm12.727-4.38c0 1.04-.233 1.967-.699 2.78a5.06 5.06 0 0 1-1.86 1.92c-.774.467-1.647.7-2.62.7-.974 0-1.854-.233-2.64-.7a5.194 5.194 0 0 1-1.88-1.92c-.454-.813-.68-1.74-.68-2.78 0-1.04.226-1.967.68-2.78a5.194 5.194 0 0 1 1.88-1.92c.786-.467 1.666-.7 2.64-.7.973 0 1.846.233 2.62.7a5.06 5.06 0 0 1 1.86 1.92c.466.813.699 1.74.699 2.78Zm-1.599 0c0-.773-.16-1.453-.48-2.04a3.459 3.459 0 0 0-1.28-1.38c-.534-.333-1.14-.5-1.82-.5-.68 0-1.294.167-1.84.5-.534.333-.96.793-1.28 1.38-.32.587-.48 1.267-.48 2.04 0 .76.16 1.433.48 2.02a3.81 3.81 0 0 0 1.28 1.4c.546.333 1.16.5 1.84.5.68 0 1.286-.167 1.82-.5a3.609 3.609 0 0 0 1.28-1.4c.32-.587.48-1.26.48-2.02Zm9.106-5.3c.907 0 1.72.227 2.44.68.72.453 1.287 1.08 1.7 1.88.427.8.64 1.72.64 2.76 0 1.027-.213 1.947-.64 2.76a4.89 4.89 0 0 1-1.7 1.9c-.707.453-1.507.68-2.4.68a4.39 4.39 0 0 1-1.4-.22c-.427-.16-.82-.36-1.18-.6a4.387 4.387 0 0 1-.88-.84 3.505 3.505 0 0 1-.52-.94l.44-.28v5.9c0 .227-.073.42-.22.58a.75.75 0 0 1-.58.24.783.783 0 0 1-.8-.82V193.4c0-.227.073-.413.22-.56a.79.79 0 0 1 .58-.24c.24 0 .433.08.58.24.147.147.22.333.22.56v1.78l-.3-.16c.093-.333.253-.653.48-.96.24-.307.527-.573.86-.8a4.32 4.32 0 0 1 1.14-.56c.427-.133.867-.2 1.32-.2Zm-.18 1.48c-.667 0-1.26.167-1.78.5a3.494 3.494 0 0 0-1.2 1.36c-.28.573-.42 1.233-.42 1.98 0 .733.14 1.393.42 1.98a3.457 3.457 0 0 0 1.2 1.38c.52.333 1.113.5 1.78.5s1.253-.167 1.76-.5a3.457 3.457 0 0 0 1.2-1.38c.293-.587.44-1.247.44-1.98 0-.747-.147-1.407-.44-1.98a3.494 3.494 0 0 0-1.2-1.36c-.507-.333-1.093-.5-1.76-.5Zm12.145 9.22c-1.066 0-2-.227-2.8-.68a4.94 4.94 0 0 1-1.88-1.86c-.44-.8-.66-1.72-.66-2.76 0-1.16.227-2.147.68-2.96.467-.827 1.067-1.453 1.8-1.88a4.58 4.58 0 0 1 2.36-.66c.614 0 1.207.113 1.78.34.574.227 1.08.56 1.52 1 .44.427.794.947 1.06 1.56.267.6.407 1.273.42 2.02 0 .213-.08.393-.24.54a.8.8 0 0 1-.56.22h-7.9l-.36-1.38h7.7l-.32.28v-.44c-.053-.547-.24-1.013-.56-1.4a3.044 3.044 0 0 0-1.14-.92 3.17 3.17 0 0 0-1.4-.32c-.4 0-.8.073-1.2.22-.386.133-.74.36-1.06.68-.306.307-.56.707-.76 1.2-.186.493-.28 1.087-.28 1.78 0 .773.154 1.453.46 2.04.32.587.76 1.053 1.32 1.4.56.333 1.214.5 1.96.5.467 0 .874-.06 1.22-.18.347-.12.647-.267.9-.44.254-.187.467-.373.64-.56.174-.12.34-.18.5-.18.2 0 .36.067.48.2.134.133.2.293.2.48 0 .227-.106.427-.32.6-.373.413-.88.78-1.52 1.1-.64.307-1.32.46-2.04.46Zm7.485-.2a.79.79 0 0 1-.58-.24.826.826 0 0 1-.22-.58v-8.72c0-.227.073-.413.22-.56a.79.79 0 0 1 .58-.24c.24 0 .433.08.58.24.147.147.22.333.22.56v2.64l-.24-.42c.08-.413.22-.813.42-1.2.213-.4.48-.753.8-1.06.32-.32.687-.567 1.1-.74a3.26 3.26 0 0 1 1.36-.28c.293 0 .56.073.8.22.253.133.38.327.38.58 0 .28-.073.487-.22.62a.724.724 0 0 1-.5.2c-.173 0-.34-.033-.5-.1-.16-.08-.36-.12-.6-.12-.333 0-.667.093-1 .28-.32.173-.62.427-.9.76a4.525 4.525 0 0 0-.66 1.14c-.16.413-.24.86-.24 1.34v4.86a.79.79 0 0 1-.24.58.726.726 0 0 1-.56.24Z" fill="#fff"/><path d="M86.955 112.5c3.21 0 6.015.66 8.415 1.98 2.43 1.29 4.32 3.12 5.67 5.49 1.38 2.37 2.07 5.13 2.07 8.28 0 3.15-.69 5.91-2.07 8.28-1.35 2.34-3.24 4.17-5.67 5.49-2.4 1.32-5.205 1.98-8.415 1.98h-9.63l-.045-1.35H86.955c2.58 0 4.815-.6 6.705-1.8 1.92-1.2 3.405-2.88 4.455-5.04 1.08-2.16 1.62-4.68 1.62-7.56s-.54-5.4-1.62-7.56c-1.05-2.16-2.535-3.84-4.455-5.04-1.92-1.2-4.155-1.8-6.705-1.8H76.83v-1.35h10.125Zm-8.865 0V144h-2.925v-31.5h2.925Zm-2.79 28.215V144h-3.6v-.45h.585c.78 0 1.44-.27 1.98-.81.57-.57.87-1.245.9-2.025h.135Zm0-24.93h-.135c0-.78-.285-1.44-.855-1.98-.57-.57-1.245-.855-2.025-.855h-.54l-.045-.45h3.6v3.285Zm38.21-3.285V144h-2.925v-31.5h2.925Zm-2.79 28.215V144h-3.6v-.45h.585c.78 0 1.44-.27 1.98-.81.57-.57.87-1.245.9-2.025h.135Zm0-24.93h-.135a2.78 2.78 0 0 0-.9-1.98c-.54-.57-1.2-.855-1.98-.855h-.585v-.45h3.6v3.285Zm2.655 24.93h.135c.03.78.315 1.455.855 2.025.57.54 1.245.81 2.025.81h.585v.45h-3.6v-3.285Zm0-24.93V112.5h3.6v.45h-.585c-.78 0-1.455.285-2.025.855-.54.54-.825 1.2-.855 1.98h-.135Zm15.34-3.285V144h-2.925v-31.5h2.925Zm12.15 30.105V144H128.58v-1.395h12.285ZM138.93 127.8v1.35h-10.35v-1.35h10.35Zm1.935-15.3v1.395H128.58V112.5h12.285Zm2.745 24.21L141 144h-7.47l1.62-1.395c1.59 0 2.88-.24 3.87-.72a6.528 6.528 0 0 0 2.475-2.115c.63-.9 1.185-1.92 1.665-3.06h.45Zm-4.68-7.65v2.97h-.45v-.675c0-.6-.21-1.11-.63-1.53-.42-.45-.93-.675-1.53-.675v-.09h2.61Zm0-4.14v2.97h-2.61v-.09c.6-.03 1.11-.255 1.53-.675.42-.45.63-.975.63-1.575v-.63h.45Zm1.935-11.16v3.6h-.45v-.81c0-.72-.255-1.335-.765-1.845a2.65 2.65 0 0 0-1.89-.855v-.09h3.105Zm0-2.07v1.305l-5.49-.495c.66 0 1.35-.045 2.07-.135.75-.09 1.44-.195 2.07-.315.63-.12 1.08-.24 1.35-.36Zm-14.94 29.025V144h-3.6v-.45h.585c.78 0 1.44-.27 1.98-.81.57-.57.87-1.245.9-2.025h.135Zm0-24.93h-.135c0-.78-.285-1.44-.855-1.98-.57-.57-1.245-.855-2.025-.855h-.54l-.045-.45h3.6v3.285Zm50.698 15.615v7.425c-.69.9-1.62 1.8-2.79 2.7-1.17.9-2.61 1.65-4.32 2.25-1.68.57-3.66.855-5.94.855-3.18-.03-5.985-.72-8.415-2.07a14.942 14.942 0 0 1-5.715-5.715c-1.35-2.46-2.025-5.325-2.025-8.595 0-3.27.675-6.135 2.025-8.595 1.38-2.46 3.285-4.365 5.715-5.715 2.43-1.38 5.235-2.07 8.415-2.07 1.65 0 3.135.135 4.455.405 1.32.27 2.505.645 3.555 1.125 1.08.45 2.055.96 2.925 1.53l.9 6.345h-.405c-.45-1.74-1.2-3.195-2.25-4.365-1.02-1.2-2.31-2.115-3.87-2.745-1.56-.63-3.33-.945-5.31-.945-2.52 0-4.74.63-6.66 1.89-1.92 1.26-3.42 3.015-4.5 5.265-1.08 2.25-1.62 4.875-1.62 7.875s.54 5.625 1.62 7.875 2.58 4.005 4.5 5.265c1.92 1.23 4.14 1.86 6.66 1.89 1.32 0 2.58-.15 3.78-.45 1.23-.33 2.385-.78 3.465-1.35 1.08-.6 2.04-1.305 2.88-2.115l.045-7.965c0-1.35-.765-2.025-2.295-2.025h-.72v-.45h8.82v.45h-.675c-1.56 0-2.31.675-2.25 2.025Zm23.303-19.53c3.21 0 6.03.69 8.46 2.07 2.43 1.35 4.32 3.255 5.67 5.715 1.38 2.46 2.07 5.325 2.07 8.595 0 3.27-.69 6.135-2.07 8.595-1.35 2.46-3.24 4.38-5.67 5.76-2.43 1.35-5.25 2.025-8.46 2.025-3.18 0-5.985-.675-8.415-2.025-2.43-1.38-4.335-3.3-5.715-5.76-1.35-2.46-2.025-5.325-2.025-8.595 0-3.27.675-6.135 2.025-8.595 1.38-2.46 3.285-4.365 5.715-5.715 2.43-1.38 5.235-2.07 8.415-2.07Zm0 31.41c2.55 0 4.77-.63 6.66-1.89 1.92-1.26 3.405-3.015 4.455-5.265 1.08-2.25 1.62-4.875 1.62-7.875s-.54-5.625-1.62-7.875c-1.05-2.25-2.535-4.005-4.455-5.265-1.89-1.26-4.11-1.89-6.66-1.89-2.52 0-4.74.63-6.66 1.89-1.89 1.26-3.375 3.015-4.455 5.265-1.05 2.25-1.575 4.875-1.575 7.875s.525 5.625 1.575 7.875c1.08 2.25 2.565 4.005 4.455 5.265 1.92 1.26 4.14 1.89 6.66 1.89Zm48.45 1.35.45-1.17c.54 0 1.245.105 2.115.315.9.21 1.935.495 3.105.855 1.17.39 2.46.855 3.87 1.395 1.44.54 2.97 1.14 4.59 1.8 1.62.66 3.33 1.38 5.13 2.16 1.68.72 3.495 1.245 5.445 1.575 1.98.36 3.975.48 5.985.36 2.01-.12 3.915-.525 5.715-1.215a13.847 13.847 0 0 0 4.815-2.925l.18.225c-.21.57-.72 1.26-1.53 2.07-.78.84-1.83 1.635-3.15 2.385-1.32.78-2.88 1.38-4.68 1.8-1.77.45-3.765.585-5.985.405-2.19-.18-4.575-.825-7.155-1.935a71.42 71.42 0 0 1-4.41-2.115c-1.56-.81-3.165-1.62-4.815-2.43-1.65-.81-3.3-1.545-4.95-2.205-1.62-.63-3.195-1.08-4.725-1.35Zm.495-32.76c3.18 0 5.97.69 8.37 2.07 2.43 1.35 4.32 3.255 5.67 5.715 1.38 2.46 2.07 5.325 2.07 8.595 0 3.27-.69 6.135-2.07 8.595-1.35 2.46-3.24 4.38-5.67 5.76-2.43 1.35-5.22 2.025-8.37 2.025-3.18 0-5.985-.675-8.415-2.025-2.43-1.38-4.335-3.3-5.715-5.76-1.35-2.46-2.025-5.325-2.025-8.595 0-3.27.675-6.135 2.025-8.595 1.38-2.46 3.285-4.365 5.715-5.715 2.43-1.38 5.235-2.07 8.415-2.07Zm0 31.41c2.55 0 4.77-.63 6.66-1.89 1.92-1.26 3.405-3.015 4.455-5.265 1.08-2.25 1.62-4.875 1.62-7.875s-.54-5.625-1.62-7.875c-1.05-2.25-2.535-4.005-4.455-5.265-1.89-1.26-4.11-1.89-6.66-1.89s-4.785.63-6.705 1.89c-1.92 1.26-3.42 3.015-4.5 5.265-1.05 2.25-1.575 4.875-1.575 7.875s.54 5.625 1.62 7.875 2.58 4.005 4.5 5.265c1.92 1.26 4.14 1.89 6.66 1.89Zm26.427-30.78v19.8c0 2.16.39 4.065 1.17 5.715.81 1.65 1.935 2.94 3.375 3.87 1.44.9 3.105 1.35 4.995 1.35 2.01 0 3.765-.435 5.265-1.305 1.5-.87 2.67-2.07 3.51-3.6.84-1.56 1.26-3.375 1.26-5.445V112.5h2.115v20.385c0 2.34-.51 4.395-1.53 6.165-.99 1.74-2.4 3.105-4.23 4.095-1.83.99-3.96 1.485-6.39 1.485-2.49 0-4.68-.48-6.57-1.44-1.86-.99-3.315-2.355-4.365-4.095-1.02-1.77-1.53-3.825-1.53-6.165V112.5h2.925Zm-2.79 0v2.7h-.135c0-.66-.24-1.2-.72-1.62-.45-.42-1.005-.63-1.665-.63h-.72v-.45h3.24Zm5.895 0v.45h-.72c-.66 0-1.23.21-1.71.63-.45.42-.675.96-.675 1.62h-.09v-2.7h3.195Zm16.605 0v2.7h-.135c0-.66-.24-1.2-.72-1.62-.45-.42-1.005-.63-1.665-.63h-.72v-.45h3.24Zm5.085 0v.45h-.72c-.66 0-1.23.21-1.71.63-.45.42-.675.96-.675 1.62h-.09v-2.7h3.195Zm10.775 0V144h-2.925v-31.5h2.925Zm-2.79 28.215V144h-3.6v-.45h.585c.78 0 1.44-.27 1.98-.81.57-.57.87-1.245.9-2.025h.135Zm0-24.93h-.135a2.78 2.78 0 0 0-.9-1.98c-.54-.57-1.2-.855-1.98-.855h-.585v-.45h3.6v3.285Zm2.655 24.93h.135c.03.78.315 1.455.855 2.025.57.54 1.245.81 2.025.81h.585v.45h-3.6v-3.285Zm0-24.93V112.5h3.6v.45h-.585c-.78 0-1.455.285-2.025.855-.54.54-.825 1.2-.855 1.98h-.135Zm11.92-3.96 26.145 27.9.405 4.905-26.145-27.855-.405-4.95Zm.09 28.98V144h-3.735v-.45h.855c.75 0 1.395-.27 1.935-.81s.81-1.185.81-1.935h.135Zm1.935 0c0 .75.27 1.395.81 1.935s1.185.81 1.935.81h.855v.45h-3.735v-3.195h.135Zm-2.025-28.98 1.98 2.52.045 29.655h-2.07v-26.55c0-1.53-.075-2.85-.225-3.96l-.18-1.665h.45Zm26.55.675v26.37c0 .96.03 1.89.09 2.79.06.87.12 1.59.18 2.16l.135.81h-.405l-2.025-2.385V112.5h2.025Zm3.6 0v.45h-.81c-.75 0-1.395.27-1.935.81-.54.51-.825 1.155-.855 1.935h-.135V112.5h3.735Zm-9.27 0h3.735v3.195h-.09c-.03-.78-.315-1.425-.855-1.935-.51-.54-1.155-.81-1.935-.81h-.855v-.45Zm26.677.135V144h-2.925v-31.365h2.925Zm11.565-.18v1.35H355.72v-1.35h26.055Zm0 1.215v3.645l-.45-.045v-.765c0-.75-.27-1.38-.81-1.89a2.681 2.681 0 0 0-1.845-.81v-.135h3.105Zm0-2.025v1.305l-5.49-.495c.66 0 1.35-.045 2.07-.135.75-.09 1.44-.195 2.07-.315.63-.12 1.08-.24 1.35-.36Zm-14.355 29.07V144h-3.6v-.45h.585c.78 0 1.44-.27 1.98-.81.57-.57.87-1.245.9-2.025h.135Zm2.655 0h.135c.03.78.315 1.455.855 2.025.57.54 1.245.81 2.025.81h.585v.45h-3.6v-3.285Zm-11.25-27.045v.135c-.75.03-1.38.3-1.89.81s-.765 1.14-.765 1.89v.765l-.45.045v-3.645h3.105Zm-3.105-2.025c.3.12.75.24 1.35.36.63.12 1.32.225 2.07.315.75.09 1.44.135 2.07.135l-5.49.495v-1.305Zm36.008.855V144h-2.925v-31.5h2.925Zm12.15 30.105V144h-12.285v-1.395h12.285Zm-1.935-14.805v1.35h-10.35v-1.35h10.35Zm1.935-15.3v1.395h-12.285V112.5h12.285Zm2.745 24.21-2.61 7.29h-7.47l1.62-1.395c1.59 0 2.88-.24 3.87-.72a6.528 6.528 0 0 0 2.475-2.115c.63-.9 1.185-1.92 1.665-3.06h.45Zm-4.68-7.65v2.97h-.45v-.675c0-.6-.21-1.11-.63-1.53-.42-.45-.93-.675-1.53-.675v-.09h2.61Zm0-4.14v2.97h-2.61v-.09c.6-.03 1.11-.255 1.53-.675.42-.45.63-.975.63-1.575v-.63h.45Zm1.935-11.16v3.6h-.45v-.81c0-.72-.255-1.335-.765-1.845a2.65 2.65 0 0 0-1.89-.855v-.09h3.105Zm0-2.07v1.305l-5.49-.495c.66 0 1.35-.045 2.07-.135.75-.09 1.44-.195 2.07-.315.63-.12 1.08-.24 1.35-.36Zm-14.94 29.025V144h-3.6v-.45h.585c.78 0 1.44-.27 1.98-.81.57-.57.87-1.245.9-2.025h.135Zm0-24.93h-.135c0-.78-.285-1.44-.855-1.98-.57-.57-1.245-.855-2.025-.855h-.54l-.045-.45h3.6v3.285Zm27.737-3.285h6.345c1.35 0 2.565.195 3.645.585 1.11.39 2.04.96 2.79 1.71.75.72 1.32 1.605 1.71 2.655.42 1.02.63 2.19.63 3.51a8.82 8.82 0 0 1-1.035 4.14 8.725 8.725 0 0 1-2.745 3.24c-1.14.81-2.43 1.215-3.87 1.215.51.21 1.065.645 1.665 1.305.6.63 1.125 1.245 1.575 1.845l.585.9c.42.57.93 1.275 1.53 2.115.63.84 1.26 1.665 1.89 2.475.63.81 1.17 1.455 1.62 1.935.6.66 1.2 1.245 1.8 1.755.6.51 1.245.915 1.935 1.215.72.3 1.515.45 2.385.45v.45h-2.475c-1.38 0-2.58-.21-3.6-.63-.99-.42-1.83-.93-2.52-1.53a19.38 19.38 0 0 1-1.755-1.8c-.09-.12-.345-.465-.765-1.035-.39-.57-.87-1.245-1.44-2.025a164.377 164.377 0 0 0-3.015-4.365c-.39-.57-.615-.9-.675-.99-.57-.75-1.2-1.44-1.89-2.07-.69-.63-1.44-.945-2.25-.945v-.45l.675.045c.48 0 1.05-.015 1.71-.045.78-.03 1.635-.15 2.565-.36.93-.21 1.8-.645 2.61-1.305.81-.66 1.425-1.665 1.845-3.015a8.903 8.903 0 0 0 .27-2.7c-.03-2.04-.555-3.66-1.575-4.86-.99-1.23-2.325-1.89-4.005-1.98-.84-.06-1.71-.075-2.61-.045h-3.105c0-.03-.045-.15-.135-.36a4.452 4.452 0 0 0-.225-.675l-.09-.36Zm.585 0V144h-2.925v-31.5h2.925Zm-2.79 28.215V144h-3.6v-.45h.585c.78 0 1.44-.27 1.98-.81.57-.57.87-1.245.9-2.025h.135Zm0-24.93h-.135a2.78 2.78 0 0 0-.9-1.98c-.54-.57-1.2-.855-1.98-.855h-.585v-.45h3.6v3.285Zm2.655 24.93h.135c0 .78.285 1.455.855 2.025.57.54 1.245.81 2.025.81h.54v.45h-3.555v-3.285Zm38.783-28.845c3.21 0 6.03.69 8.46 2.07 2.43 1.35 4.32 3.255 5.67 5.715 1.38 2.46 2.07 5.325 2.07 8.595 0 3.27-.69 6.135-2.07 8.595-1.35 2.46-3.24 4.38-5.67 5.76-2.43 1.35-5.25 2.025-8.46 2.025-3.18 0-5.985-.675-8.415-2.025-2.43-1.38-4.335-3.3-5.715-5.76-1.35-2.46-2.025-5.325-2.025-8.595 0-3.27.675-6.135 2.025-8.595 1.38-2.46 3.285-4.365 5.715-5.715 2.43-1.38 5.235-2.07 8.415-2.07Zm0 31.41c2.55 0 4.77-.63 6.66-1.89 1.92-1.26 3.405-3.015 4.455-5.265 1.08-2.25 1.62-4.875 1.62-7.875s-.54-5.625-1.62-7.875c-1.05-2.25-2.535-4.005-4.455-5.265-1.89-1.26-4.11-1.89-6.66-1.89-2.52 0-4.74.63-6.66 1.89-1.89 1.26-3.375 3.015-4.455 5.265-1.05 2.25-1.575 4.875-1.575 7.875s.525 5.625 1.575 7.875c1.08 2.25 2.565 4.005 4.455 5.265 1.92 1.26 4.14 1.89 6.66 1.89Z" fill="#F1F1F1"/><g filter="url(#a)"><path stroke="url(#b)" stroke-width="2" shape-rendering="crispEdges" d="M5 52h524v222H5z"/></g><mask id="d" fill="#fff"><path d="M54 0h333v216H54V0Z"/></mask><path d="M54 0v-2h-2v2h2Zm0 2h333v-4H54v4Zm2 214V0h-4v216h4Z" fill="url(#c)" mask="url(#d)"/><defs><linearGradient id="b" x1="267" y1="51" x2="340.5" y2="266.5" gradientUnits="userSpaceOnUse"><stop stop-color="#fff"/><stop offset="1" stop-color="#fff" stop-opacity="0"/></linearGradient><linearGradient id="c" x1="-215" y1="-75.5" x2="29" y2="244.5" gradientUnits="userSpaceOnUse"><stop stop-color="#fff"/><stop offset="1" stop-color="#fff" stop-opacity="0"/></linearGradient><filter id="a" x="0" y="51" width="534" height="232" filterUnits="userSpaceOnUse" color-interpolation-filters="sRGB"><feFlood flood-opacity="0" result="BackgroundImageFix"/><feColorMatrix in="SourceAlpha" values="0 0 0 0 0 0 0 0 0 0 0 0 0 0 0 0 0 0 127 0" result="hardAlpha"/><feOffset dy="4"/><feGaussianBlur stdDeviation="2"/><feComposite in2="hardAlpha" operator="out"/><feColorMatrix values="0 0 0 0 0 0 0 0 0 0 0 0 0 0 0 0 0 0 0.25 0"/><feBlend in2="BackgroundImageFix" result="effect1_dropShadow_7_10"/><feBlend in="SourceGraphic" in2="effect1_dropShadow_7_10" result="shape"/></filter></defs></svg>